<svg xmlns="http://www.w3.org/2000/svg" width="26" height="26" viewBox="0 0 26 26"><defs><style>.a{fill:rgba(255,255,255,0);}.b,.c{fill:#f40a40;}.c{stroke:#f40a40;}</style></defs><g transform="translate(-1513 -5671)"><rect class="a" width="26" height="26" transform="translate(1513 5671)"/><path class="b" d="M21.982,5.24A6.8,6.8,0,0,0,13,4.518,6.782,6.782,0,0,0,3.658,5.579a7.2,7.2,0,0,0,.368,9.628l6.833,7.013a3.006,3.006,0,0,0,4.291,0l6.833-7.013a7.194,7.194,0,0,0,0-9.967Zm-1.551,8.411-6.833,7a.822.822,0,0,1-1.188,0L5.577,13.617a4.923,4.923,0,0,1,0-6.765,4.618,4.618,0,0,1,6.6,0,1.082,1.082,0,0,0,1.562,0,4.618,4.618,0,0,1,6.6,0,4.923,4.923,0,0,1,.088,6.765Z" transform="translate(1513.012 5670.879)"/><path class="c" d="M1532.562,5676.434l-6.879.35-6.765-.534-3.111,5.812,9.876,10.807,8.757-8.221,1.052-5.374Z"/></g></svg>