<svg xmlns="http://www.w3.org/2000/svg" width="26" height="26" viewBox="0 0 26 26"><defs><style>.a{fill:rgba(255,255,255,0);}.b{fill:#0a22f4;fill-rule:evenodd;}</style></defs><g transform="translate(-633 -5433)"><rect class="a" width="26" height="26" transform="translate(633 5433)"/><path class="b" d="M18.433,3a5.535,5.535,0,0,1,3.938,1.646A5.626,5.626,0,0,1,24,8.611v8.778A5.591,5.591,0,0,1,18.433,23H7.566A5.591,5.591,0,0,1,2,17.389V8.611A5.583,5.583,0,0,1,7.566,3Zm1.75,7.267.088-.089a.866.866,0,0,0-.012-1.111.922.922,0,0,0-.582-.289A.831.831,0,0,0,19.06,9L14.1,13a1.71,1.71,0,0,1-2.2,0L6.95,9a.831.831,0,0,0-1.1.078.855.855,0,0,0-.078,1.111l.144.144,5.005,3.944a3.437,3.437,0,0,0,4.3,0Z" transform="translate(633 5433)"/></g></svg>