<svg xmlns="http://www.w3.org/2000/svg" width="26" height="26" viewBox="0 0 26 26"><defs><style>.a{fill:rgba(255,255,255,0);}.b{fill:#0a22f4;}</style></defs><g transform="translate(-262 -5434)"><rect class="a" width="26" height="26" transform="translate(262 5434)"/><path class="b" d="M19.783,15.618a2.507,2.507,0,0,0-1.841.484c-.53.309-1.538,1.126-2.116.917a13.125,13.125,0,0,1-6.944-6.776c-.212-.59.6-1.6.908-2.141a2.569,2.569,0,0,0,.48-1.854A15.076,15.076,0,0,0,7.708,2.677,2.1,2.1,0,0,0,6.423,2c-1.651-.071-3.5,2.133-3.819,2.66-.81,1.124-.806,2.62.014,4.433,1.975,4.871,9.444,12.223,14.334,14.272A5.908,5.908,0,0,0,19.42,24a3.211,3.211,0,0,0,1.926-.6c.419-.241,2.713-2.177,2.652-3.873a2.135,2.135,0,0,0-.668-1.283A15.185,15.185,0,0,0,19.783,15.618Z" transform="translate(262 5434)"/></g></svg>